<svg width="249" height="75" viewBox="0 0 249 75" fill="none" xmlns="http://www.w3.org/2000/svg">
<path fill-rule="evenodd" clip-rule="evenodd" d="M109.706 23.3088C107.306 23.3088 104.457 23.8025 101.344 27.3032V17.5063C101.344 15.0314 99.2728 13.0182 96.7271 13.0182C94.1814 13.0182 92.1105 15.0314 92.1105 17.5063V49.4552C92.1105 51.93 94.1814 53.9433 96.7271 53.9433C99.2728 53.9433 101.344 51.93 101.344 49.4552V37.0552C101.344 33.4904 103.085 31.522 106.257 31.522C109.363 31.522 110.999 33.4327 110.999 37.0552V49.4552C110.999 51.93 113.07 53.9433 115.615 53.9433C118.161 53.9433 120.232 51.93 120.232 49.4552V34.4521C120.225 27.4763 116.295 23.3088 109.706 23.3088ZM136.219 23.5269C132.46 23.5269 129.479 24.0014 126.557 25.0657C125.04 25.6171 124.025 27.0404 124.025 28.6049C124.025 30.695 125.733 32.33 127.916 32.33C128.364 32.33 128.74 32.2659 129.254 32.0992C131.029 31.5606 132.902 31.3041 134.992 31.3041C139.952 31.3041 141.007 33.9649 141.02 36.2154C139.299 35.6704 137.129 35.1703 134.102 35.1703C126.214 35.1703 121.69 38.6774 121.69 44.8005V44.9095C121.69 50.4427 125.964 54.1614 132.321 54.1614C135.902 54.1614 138.771 53.1035 141.06 50.9364C141.449 52.52 143.012 53.9498 145.412 53.9498C147.938 53.9498 149.917 52.052 149.917 49.6284V36.4013C149.917 32.2402 148.796 29.0344 146.573 26.8802C144.278 24.6553 140.796 23.5269 136.219 23.5269ZM134.88 47.7306C132.262 47.7306 130.639 46.5252 130.639 44.5825V44.4735C130.639 42.1589 132.631 40.8381 136.107 40.8381C137.887 40.8381 139.662 41.178 141.132 41.7935V43.0181C141.132 45.7879 138.56 47.7306 134.88 47.7306ZM162.289 27.3805C164.676 24.6427 167.618 23.3091 171.258 23.3091C178.203 23.3091 185.227 28.5859 185.227 38.6777V38.7867C185.227 43.4351 183.756 47.3718 180.979 50.18C178.44 52.7511 174.991 54.1616 171.258 54.1616C167.664 54.1616 164.808 52.9691 162.335 50.4301V58.124C162.335 60.5989 160.264 62.6121 157.719 62.6121C155.173 62.6121 153.102 60.5989 153.102 58.124V28.0152C153.102 25.5404 155.173 23.5271 157.719 23.5271C160.047 23.5271 161.972 25.207 162.289 27.3805ZM176 38.6777C176 34.3242 173.026 31.0351 169.082 31.0351C165.112 31.0351 162.223 34.2473 162.223 38.6777V38.7867C162.223 43.2171 165.105 46.4293 169.082 46.4293C173.092 46.4293 176 43.2171 176 38.7867V38.6777ZM205.513 23.3091C201.873 23.3091 198.931 24.6427 196.544 27.3805C196.227 25.207 194.301 23.5271 191.973 23.5271C189.428 23.5271 187.357 25.5404 187.357 28.0152V58.124C187.357 60.5989 189.428 62.6121 191.973 62.6121C194.519 62.6121 196.59 60.5989 196.59 58.124V50.4301C199.063 52.9691 201.919 54.1616 205.513 54.1616C209.246 54.1616 212.695 52.7511 215.234 50.18C218.011 47.3718 219.481 43.4351 219.481 38.7867V38.6777C219.481 28.5859 212.458 23.3091 205.513 23.3091ZM203.337 31.0351C207.28 31.0351 210.255 34.3242 210.255 38.6777V38.7867C210.255 43.2171 207.346 46.4293 203.337 46.4293C199.36 46.4293 196.478 43.2171 196.478 38.7867V38.6777C196.478 34.2473 199.366 31.0351 203.337 31.0351ZM240.078 26.9123C240.935 24.6939 242.465 23.5269 244.503 23.5269C246.963 23.5269 248.895 25.3542 248.889 27.6752C248.889 28.3485 248.665 29.323 248.467 29.7718L238.053 54.0845C235.435 60.2461 232.705 62.4324 227.62 62.4324C225.826 62.4324 224.448 62.2016 222.865 61.6502C221.777 61.2655 219.943 60.2653 219.943 57.893C219.943 55.5592 221.836 54.1679 223.663 54.1679C224.388 54.1679 224.823 54.2897 225.173 54.4051C225.892 54.6231 226.288 54.7129 226.835 54.7129C228.22 54.7129 228.8 54.4949 229.499 53.1933L229.71 52.7061L219.58 29.8872C219.35 29.323 219.105 28.451 219.105 27.8419C219.105 25.3799 221.064 23.5205 223.663 23.5205C225.806 23.5205 227.257 24.6105 228.088 26.8546L234.188 42.8002L240.078 26.9123Z" fill="white"/>
<path d="M66.7508 19.2863V45.5111C66.7508 55.9197 58.0177 64.3584 47.246 64.3584H45.2732L35.1986 74.087C34.804 74.4683 34.2582 74.7097 33.6532 74.7097C33.0942 74.7097 32.5878 74.5128 32.1999 74.1823L32.0289 74.0171L32.0223 74.0108L22.0332 64.3584H20.0538C9.28864 64.3584 0.555557 55.9197 0.555557 45.5111V19.2863C0.555557 8.87773 9.28865 0.439034 20.0603 0.439034H47.246C58.0177 0.439034 66.7508 8.87773 66.7508 19.2863Z" fill="#FFD666"/>
<path d="M15.9678 36.7684C14.0475 36.7684 12.953 38.8828 14.0672 40.4095C18.3992 46.3565 25.5625 50.2339 33.6564 50.2339C41.7502 50.2339 48.907 46.3501 53.239 40.4095C54.3531 38.8828 53.2586 36.7684 51.3384 36.7684H15.9678Z" fill="white"/>
<path d="M27.2141 27.7684H15.6271V22.1217C15.6271 19.0044 18.2224 16.4749 21.4206 16.4749C24.6188 16.4749 27.2141 19.0044 27.2141 22.1217V27.7684Z" fill="white"/>
<path d="M51.6862 27.7684H40.0991V22.1217C40.0991 19.0044 42.6944 16.4749 45.8926 16.4749C49.0909 16.4749 51.6862 19.0044 51.6862 22.1217V27.7684Z" fill="white"/>
</svg>
